<svg xmlns="http://www.w3.org/2000/svg" viewBox="0 0 64 64">
  <rect width="64" height="64" rx="8" fill="#060a07"/>
  <g stroke="#164c32" stroke-width="0.5" opacity="0.6">
    <line x1="0" y1="16" x2="64" y2="16"/>
    <line x1="0" y1="32" x2="64" y2="32"/>
    <line x1="0" y1="48" x2="64" y2="48"/>
    <line x1="16" y1="0" x2="16" y2="64"/>
    <line x1="32" y1="0" x2="32" y2="64"/>
    <line x1="48" y1="0" x2="48" y2="64"/>
  </g>
  <path d="M 4 40 Q 12 40 14 32 T 20 18 Q 24 18 26 28 T 32 44 Q 36 44 38 32 T 44 22 Q 50 22 52 34 T 60 34"
        fill="none" stroke="#6fff9d" stroke-width="2" stroke-linecap="round"
        filter="url(#glow)"/>
  <defs>
    <filter id="glow" x="-20%" y="-20%" width="140%" height="140%">
      <feGaussianBlur stdDeviation="1.5" result="b"/>
      <feMerge><feMergeNode in="b"/><feMergeNode in="SourceGraphic"/></feMerge>
    </filter>
  </defs>
  <circle cx="58" cy="10" r="3" fill="#ffb347">
    <animate attributeName="opacity" values="1;0.3;1" dur="1.8s" repeatCount="indefinite"/>
  </circle>
</svg>
